<svg xmlns="http://www.w3.org/2000/svg" width="820" height="460" viewBox="0 0 820 460" font-family="Helvetica,Arial,sans-serif">
<rect width="820" height="460" fill="white"/>
<text x="410.0" y="28" text-anchor="middle" font-size="22" font-weight="bold">Mehr Startzellen → höhere Win-Rate</text>
<text x="410.0" y="46" text-anchor="middle" font-size="13" fill="#666">biotope_study · 3000 Zufallsmuster · Round-Robin (Abbruch bei Gen 1000)</text>
<line x1="70" y1="400.0" x2="800" y2="400.0" stroke="#eee"/>
<text x="62" y="404.0" text-anchor="end" font-size="12" fill="#666">0%</text>
<line x1="70" y1="312.5" x2="800" y2="312.5" stroke="#eee"/>
<text x="62" y="316.5" text-anchor="end" font-size="12" fill="#666">20%</text>
<line x1="70" y1="225.0" x2="800" y2="225.0" stroke="#eee"/>
<text x="62" y="229.0" text-anchor="end" font-size="12" fill="#666">40%</text>
<line x1="70" y1="181.2" x2="800" y2="181.2" stroke="#eee"/>
<text x="62" y="185.2" text-anchor="end" font-size="12" fill="#666">50%</text>
<line x1="70" y1="137.5" x2="800" y2="137.5" stroke="#eee"/>
<text x="62" y="141.5" text-anchor="end" font-size="12" fill="#666">60%</text>
<line x1="70" y1="50.0" x2="800" y2="50.0" stroke="#eee"/>
<text x="62" y="54.0" text-anchor="end" font-size="12" fill="#666">80%</text>
<line x1="70" y1="181.2" x2="800" y2="181.2" stroke="#bbb" stroke-dasharray="4 3"/>
<text x="800" y="175.2" text-anchor="end" font-size="11" fill="#999">Schnitt 50%</text>
<rect x="73.8" y="284.9" width="24.1" height="115.1" fill="#5c83de"/>
<text x="85.9" y="416.0" text-anchor="middle" font-size="11" fill="#444">2</text>
<rect x="105.5" y="284.2" width="24.1" height="115.8" fill="#5c82de"/>
<rect x="137.3" y="276.6" width="24.1" height="123.4" fill="#607dd5"/>
<text x="149.3" y="416.0" text-anchor="middle" font-size="11" fill="#444">4</text>
<rect x="169.0" y="263.5" width="24.1" height="136.5" fill="#6674c5"/>
<rect x="200.8" y="258.5" width="24.1" height="141.5" fill="#6870c0"/>
<text x="212.8" y="416.0" text-anchor="middle" font-size="11" fill="#444">6</text>
<rect x="232.5" y="244.6" width="24.1" height="155.4" fill="#6e67af"/>
<rect x="264.2" y="222.1" width="24.1" height="177.9" fill="#785795"/>
<text x="276.3" y="416.0" text-anchor="middle" font-size="11" fill="#444">8</text>
<rect x="296.0" y="201.5" width="24.1" height="198.5" fill="#82497d"/>
<rect x="327.7" y="182.3" width="24.1" height="217.7" fill="#8a3c67"/>
<text x="339.8" y="416.0" text-anchor="middle" font-size="11" fill="#444">10</text>
<rect x="359.5" y="173.4" width="24.1" height="226.6" fill="#8e365c"/>
<rect x="391.2" y="159.5" width="24.1" height="240.5" fill="#952d4c"/>
<text x="403.3" y="416.0" text-anchor="middle" font-size="11" fill="#444">12</text>
<rect x="422.9" y="146.3" width="24.1" height="253.7" fill="#9b243d"/>
<rect x="454.7" y="144.6" width="24.1" height="255.4" fill="#9b223b"/>
<text x="466.7" y="416.0" text-anchor="middle" font-size="11" fill="#444">14</text>
<rect x="486.4" y="137.7" width="24.1" height="262.3" fill="#9f1e33"/>
<rect x="518.2" y="132.8" width="24.1" height="267.2" fill="#a11a2d"/>
<text x="530.2" y="416.0" text-anchor="middle" font-size="11" fill="#444">16</text>
<rect x="549.9" y="130.5" width="24.1" height="269.5" fill="#a2192a"/>
<rect x="581.6" y="125.3" width="24.1" height="274.7" fill="#a41524"/>
<text x="593.7" y="416.0" text-anchor="middle" font-size="11" fill="#444">18</text>
<rect x="613.4" y="126.9" width="24.1" height="273.1" fill="#a31626"/>
<rect x="645.1" y="122.6" width="24.1" height="277.4" fill="#a51321"/>
<text x="657.2" y="416.0" text-anchor="middle" font-size="11" fill="#444">20</text>
<rect x="676.9" y="122.7" width="24.1" height="277.3" fill="#a51321"/>
<rect x="708.6" y="120.1" width="24.1" height="279.9" fill="#a7121e"/>
<text x="720.7" y="416.0" text-anchor="middle" font-size="11" fill="#444">22</text>
<rect x="740.3" y="117.9" width="24.1" height="282.1" fill="#a8101c"/>
<rect x="772.1" y="118.4" width="24.1" height="281.6" fill="#a7101c"/>
<text x="784.1" y="416.0" text-anchor="middle" font-size="11" fill="#444">24</text>
<text x="435.0" y="448.0" text-anchor="middle" font-size="13" fill="#444">Anzahl lebender Startzellen (von 64)</text>
</svg>