<svg xmlns="http://www.w3.org/2000/svg" width="1184" height="308" viewBox="0 0 1184 308" font-family="Helvetica,Arial,sans-serif">
<rect width="1184" height="308" fill="white"/>
<text x="116.0" y="26" text-anchor="middle" font-size="16" font-weight="bold">#1</text>
<rect x="12" y="40" width="26" height="26" fill="#f3f3f3" stroke="#ddd" stroke-width="0.6"/>
<rect x="38" y="40" width="26" height="26" fill="#f3f3f3" stroke="#ddd" stroke-width="0.6"/>
<rect x="64" y="40" width="26" height="26" fill="#f3f3f3" stroke="#ddd" stroke-width="0.6"/>
<rect x="90" y="40" width="26" height="26" fill="#f3f3f3" stroke="#ddd" stroke-width="0.6"/>
<rect x="116" y="40" width="26" height="26" fill="#b30000" stroke="#ddd" stroke-width="0.6"/>
<rect x="142" y="40" width="26" height="26" fill="#f3f3f3" stroke="#ddd" stroke-width="0.6"/>
<rect x="168" y="40" width="26" height="26" fill="#f3f3f3" stroke="#ddd" stroke-width="0.6"/>
<rect x="194" y="40" width="26" height="26" fill="#f3f3f3" stroke="#ddd" stroke-width="0.6"/>
<rect x="12" y="66" width="26" height="26" fill="#f3f3f3" stroke="#ddd" stroke-width="0.6"/>
<rect x="38" y="66" width="26" height="26" fill="#b30000" stroke="#ddd" stroke-width="0.6"/>
<rect x="64" y="66" width="26" height="26" fill="#b30000" stroke="#ddd" stroke-width="0.6"/>
<rect x="90" y="66" width="26" height="26" fill="#f3f3f3" stroke="#ddd" stroke-width="0.6"/>
<rect x="116" y="66" width="26" height="26" fill="#f3f3f3" stroke="#ddd" stroke-width="0.6"/>
<rect x="142" y="66" width="26" height="26" fill="#b30000" stroke="#ddd" stroke-width="0.6"/>
<rect x="168" y="66" width="26" height="26" fill="#f3f3f3" stroke="#ddd" stroke-width="0.6"/>
<rect x="194" y="66" width="26" height="26" fill="#f3f3f3" stroke="#ddd" stroke-width="0.6"/>
<rect x="12" y="92" width="26" height="26" fill="#f3f3f3" stroke="#ddd" stroke-width="0.6"/>
<rect x="38" y="92" width="26" height="26" fill="#b30000" stroke="#ddd" stroke-width="0.6"/>
<rect x="64" y="92" width="26" height="26" fill="#b30000" stroke="#ddd" stroke-width="0.6"/>
<rect x="90" y="92" width="26" height="26" fill="#f3f3f3" stroke="#ddd" stroke-width="0.6"/>
<rect x="116" y="92" width="26" height="26" fill="#b30000" stroke="#ddd" stroke-width="0.6"/>
<rect x="142" y="92" width="26" height="26" fill="#f3f3f3" stroke="#ddd" stroke-width="0.6"/>
<rect x="168" y="92" width="26" height="26" fill="#f3f3f3" stroke="#ddd" stroke-width="0.6"/>
<rect x="194" y="92" width="26" height="26" fill="#f3f3f3" stroke="#ddd" stroke-width="0.6"/>
<rect x="12" y="118" width="26" height="26" fill="#f3f3f3" stroke="#ddd" stroke-width="0.6"/>
<rect x="38" y="118" width="26" height="26" fill="#f3f3f3" stroke="#ddd" stroke-width="0.6"/>
<rect x="64" y="118" width="26" height="26" fill="#f3f3f3" stroke="#ddd" stroke-width="0.6"/>
<rect x="90" y="118" width="26" height="26" fill="#b30000" stroke="#ddd" stroke-width="0.6"/>
<rect x="116" y="118" width="26" height="26" fill="#f3f3f3" stroke="#ddd" stroke-width="0.6"/>
<rect x="142" y="118" width="26" height="26" fill="#f3f3f3" stroke="#ddd" stroke-width="0.6"/>
<rect x="168" y="118" width="26" height="26" fill="#f3f3f3" stroke="#ddd" stroke-width="0.6"/>
<rect x="194" y="118" width="26" height="26" fill="#f3f3f3" stroke="#ddd" stroke-width="0.6"/>
<rect x="12" y="144" width="26" height="26" fill="#b30000" stroke="#ddd" stroke-width="0.6"/>
<rect x="38" y="144" width="26" height="26" fill="#f3f3f3" stroke="#ddd" stroke-width="0.6"/>
<rect x="64" y="144" width="26" height="26" fill="#f3f3f3" stroke="#ddd" stroke-width="0.6"/>
<rect x="90" y="144" width="26" height="26" fill="#f3f3f3" stroke="#ddd" stroke-width="0.6"/>
<rect x="116" y="144" width="26" height="26" fill="#f3f3f3" stroke="#ddd" stroke-width="0.6"/>
<rect x="142" y="144" width="26" height="26" fill="#f3f3f3" stroke="#ddd" stroke-width="0.6"/>
<rect x="168" y="144" width="26" height="26" fill="#b30000" stroke="#ddd" stroke-width="0.6"/>
<rect x="194" y="144" width="26" height="26" fill="#b30000" stroke="#ddd" stroke-width="0.6"/>
<rect x="12" y="170" width="26" height="26" fill="#f3f3f3" stroke="#ddd" stroke-width="0.6"/>
<rect x="38" y="170" width="26" height="26" fill="#b30000" stroke="#ddd" stroke-width="0.6"/>
<rect x="64" y="170" width="26" height="26" fill="#f3f3f3" stroke="#ddd" stroke-width="0.6"/>
<rect x="90" y="170" width="26" height="26" fill="#f3f3f3" stroke="#ddd" stroke-width="0.6"/>
<rect x="116" y="170" width="26" height="26" fill="#f3f3f3" stroke="#ddd" stroke-width="0.6"/>
<rect x="142" y="170" width="26" height="26" fill="#f3f3f3" stroke="#ddd" stroke-width="0.6"/>
<rect x="168" y="170" width="26" height="26" fill="#f3f3f3" stroke="#ddd" stroke-width="0.6"/>
<rect x="194" y="170" width="26" height="26" fill="#f3f3f3" stroke="#ddd" stroke-width="0.6"/>
<rect x="12" y="196" width="26" height="26" fill="#f3f3f3" stroke="#ddd" stroke-width="0.6"/>
<rect x="38" y="196" width="26" height="26" fill="#f3f3f3" stroke="#ddd" stroke-width="0.6"/>
<rect x="64" y="196" width="26" height="26" fill="#b30000" stroke="#ddd" stroke-width="0.6"/>
<rect x="90" y="196" width="26" height="26" fill="#f3f3f3" stroke="#ddd" stroke-width="0.6"/>
<rect x="116" y="196" width="26" height="26" fill="#f3f3f3" stroke="#ddd" stroke-width="0.6"/>
<rect x="142" y="196" width="26" height="26" fill="#f3f3f3" stroke="#ddd" stroke-width="0.6"/>
<rect x="168" y="196" width="26" height="26" fill="#b30000" stroke="#ddd" stroke-width="0.6"/>
<rect x="194" y="196" width="26" height="26" fill="#f3f3f3" stroke="#ddd" stroke-width="0.6"/>
<rect x="12" y="222" width="26" height="26" fill="#f3f3f3" stroke="#ddd" stroke-width="0.6"/>
<rect x="38" y="222" width="26" height="26" fill="#f3f3f3" stroke="#ddd" stroke-width="0.6"/>
<rect x="64" y="222" width="26" height="26" fill="#b30000" stroke="#ddd" stroke-width="0.6"/>
<rect x="90" y="222" width="26" height="26" fill="#f3f3f3" stroke="#ddd" stroke-width="0.6"/>
<rect x="116" y="222" width="26" height="26" fill="#b30000" stroke="#ddd" stroke-width="0.6"/>
<rect x="142" y="222" width="26" height="26" fill="#b30000" stroke="#ddd" stroke-width="0.6"/>
<rect x="168" y="222" width="26" height="26" fill="#f3f3f3" stroke="#ddd" stroke-width="0.6"/>
<rect x="194" y="222" width="26" height="26" fill="#f3f3f3" stroke="#ddd" stroke-width="0.6"/>
<text x="116.0" y="270" text-anchor="middle" font-size="15" font-weight="bold">Schlanke Gazelle</text>
<text x="116.0" y="290" text-anchor="middle" font-size="14" fill="#b30000">76.8%</text>
<text x="348.0" y="26" text-anchor="middle" font-size="16" font-weight="bold">#2</text>
<rect x="244" y="40" width="26" height="26" fill="#f3f3f3" stroke="#ddd" stroke-width="0.6"/>
<rect x="270" y="40" width="26" height="26" fill="#f3f3f3" stroke="#ddd" stroke-width="0.6"/>
<rect x="296" y="40" width="26" height="26" fill="#f3f3f3" stroke="#ddd" stroke-width="0.6"/>
<rect x="322" y="40" width="26" height="26" fill="#f3f3f3" stroke="#ddd" stroke-width="0.6"/>
<rect x="348" y="40" width="26" height="26" fill="#b30000" stroke="#ddd" stroke-width="0.6"/>
<rect x="374" y="40" width="26" height="26" fill="#f3f3f3" stroke="#ddd" stroke-width="0.6"/>
<rect x="400" y="40" width="26" height="26" fill="#b30000" stroke="#ddd" stroke-width="0.6"/>
<rect x="426" y="40" width="26" height="26" fill="#b30000" stroke="#ddd" stroke-width="0.6"/>
<rect x="244" y="66" width="26" height="26" fill="#f3f3f3" stroke="#ddd" stroke-width="0.6"/>
<rect x="270" y="66" width="26" height="26" fill="#f3f3f3" stroke="#ddd" stroke-width="0.6"/>
<rect x="296" y="66" width="26" height="26" fill="#f3f3f3" stroke="#ddd" stroke-width="0.6"/>
<rect x="322" y="66" width="26" height="26" fill="#f3f3f3" stroke="#ddd" stroke-width="0.6"/>
<rect x="348" y="66" width="26" height="26" fill="#b30000" stroke="#ddd" stroke-width="0.6"/>
<rect x="374" y="66" width="26" height="26" fill="#f3f3f3" stroke="#ddd" stroke-width="0.6"/>
<rect x="400" y="66" width="26" height="26" fill="#f3f3f3" stroke="#ddd" stroke-width="0.6"/>
<rect x="426" y="66" width="26" height="26" fill="#f3f3f3" stroke="#ddd" stroke-width="0.6"/>
<rect x="244" y="92" width="26" height="26" fill="#f3f3f3" stroke="#ddd" stroke-width="0.6"/>
<rect x="270" y="92" width="26" height="26" fill="#f3f3f3" stroke="#ddd" stroke-width="0.6"/>
<rect x="296" y="92" width="26" height="26" fill="#f3f3f3" stroke="#ddd" stroke-width="0.6"/>
<rect x="322" y="92" width="26" height="26" fill="#b30000" stroke="#ddd" stroke-width="0.6"/>
<rect x="348" y="92" width="26" height="26" fill="#f3f3f3" stroke="#ddd" stroke-width="0.6"/>
<rect x="374" y="92" width="26" height="26" fill="#f3f3f3" stroke="#ddd" stroke-width="0.6"/>
<rect x="400" y="92" width="26" height="26" fill="#f3f3f3" stroke="#ddd" stroke-width="0.6"/>
<rect x="426" y="92" width="26" height="26" fill="#b30000" stroke="#ddd" stroke-width="0.6"/>
<rect x="244" y="118" width="26" height="26" fill="#f3f3f3" stroke="#ddd" stroke-width="0.6"/>
<rect x="270" y="118" width="26" height="26" fill="#f3f3f3" stroke="#ddd" stroke-width="0.6"/>
<rect x="296" y="118" width="26" height="26" fill="#b30000" stroke="#ddd" stroke-width="0.6"/>
<rect x="322" y="118" width="26" height="26" fill="#f3f3f3" stroke="#ddd" stroke-width="0.6"/>
<rect x="348" y="118" width="26" height="26" fill="#f3f3f3" stroke="#ddd" stroke-width="0.6"/>
<rect x="374" y="118" width="26" height="26" fill="#f3f3f3" stroke="#ddd" stroke-width="0.6"/>
<rect x="400" y="118" width="26" height="26" fill="#b30000" stroke="#ddd" stroke-width="0.6"/>
<rect x="426" y="118" width="26" height="26" fill="#f3f3f3" stroke="#ddd" stroke-width="0.6"/>
<rect x="244" y="144" width="26" height="26" fill="#f3f3f3" stroke="#ddd" stroke-width="0.6"/>
<rect x="270" y="144" width="26" height="26" fill="#f3f3f3" stroke="#ddd" stroke-width="0.6"/>
<rect x="296" y="144" width="26" height="26" fill="#f3f3f3" stroke="#ddd" stroke-width="0.6"/>
<rect x="322" y="144" width="26" height="26" fill="#f3f3f3" stroke="#ddd" stroke-width="0.6"/>
<rect x="348" y="144" width="26" height="26" fill="#f3f3f3" stroke="#ddd" stroke-width="0.6"/>
<rect x="374" y="144" width="26" height="26" fill="#f3f3f3" stroke="#ddd" stroke-width="0.6"/>
<rect x="400" y="144" width="26" height="26" fill="#b30000" stroke="#ddd" stroke-width="0.6"/>
<rect x="426" y="144" width="26" height="26" fill="#f3f3f3" stroke="#ddd" stroke-width="0.6"/>
<rect x="244" y="170" width="26" height="26" fill="#f3f3f3" stroke="#ddd" stroke-width="0.6"/>
<rect x="270" y="170" width="26" height="26" fill="#f3f3f3" stroke="#ddd" stroke-width="0.6"/>
<rect x="296" y="170" width="26" height="26" fill="#f3f3f3" stroke="#ddd" stroke-width="0.6"/>
<rect x="322" y="170" width="26" height="26" fill="#f3f3f3" stroke="#ddd" stroke-width="0.6"/>
<rect x="348" y="170" width="26" height="26" fill="#f3f3f3" stroke="#ddd" stroke-width="0.6"/>
<rect x="374" y="170" width="26" height="26" fill="#f3f3f3" stroke="#ddd" stroke-width="0.6"/>
<rect x="400" y="170" width="26" height="26" fill="#f3f3f3" stroke="#ddd" stroke-width="0.6"/>
<rect x="426" y="170" width="26" height="26" fill="#b30000" stroke="#ddd" stroke-width="0.6"/>
<rect x="244" y="196" width="26" height="26" fill="#f3f3f3" stroke="#ddd" stroke-width="0.6"/>
<rect x="270" y="196" width="26" height="26" fill="#f3f3f3" stroke="#ddd" stroke-width="0.6"/>
<rect x="296" y="196" width="26" height="26" fill="#b30000" stroke="#ddd" stroke-width="0.6"/>
<rect x="322" y="196" width="26" height="26" fill="#b30000" stroke="#ddd" stroke-width="0.6"/>
<rect x="348" y="196" width="26" height="26" fill="#f3f3f3" stroke="#ddd" stroke-width="0.6"/>
<rect x="374" y="196" width="26" height="26" fill="#f3f3f3" stroke="#ddd" stroke-width="0.6"/>
<rect x="400" y="196" width="26" height="26" fill="#f3f3f3" stroke="#ddd" stroke-width="0.6"/>
<rect x="426" y="196" width="26" height="26" fill="#f3f3f3" stroke="#ddd" stroke-width="0.6"/>
<rect x="244" y="222" width="26" height="26" fill="#f3f3f3" stroke="#ddd" stroke-width="0.6"/>
<rect x="270" y="222" width="26" height="26" fill="#b30000" stroke="#ddd" stroke-width="0.6"/>
<rect x="296" y="222" width="26" height="26" fill="#f3f3f3" stroke="#ddd" stroke-width="0.6"/>
<rect x="322" y="222" width="26" height="26" fill="#f3f3f3" stroke="#ddd" stroke-width="0.6"/>
<rect x="348" y="222" width="26" height="26" fill="#b30000" stroke="#ddd" stroke-width="0.6"/>
<rect x="374" y="222" width="26" height="26" fill="#f3f3f3" stroke="#ddd" stroke-width="0.6"/>
<rect x="400" y="222" width="26" height="26" fill="#b30000" stroke="#ddd" stroke-width="0.6"/>
<rect x="426" y="222" width="26" height="26" fill="#b30000" stroke="#ddd" stroke-width="0.6"/>
<text x="348.0" y="270" text-anchor="middle" font-size="15" font-weight="bold">Mose</text>
<text x="348.0" y="290" text-anchor="middle" font-size="14" fill="#b30000">73.2%</text>
<text x="580.0" y="26" text-anchor="middle" font-size="16" font-weight="bold">#3</text>
<rect x="476" y="40" width="26" height="26" fill="#b30000" stroke="#ddd" stroke-width="0.6"/>
<rect x="502" y="40" width="26" height="26" fill="#f3f3f3" stroke="#ddd" stroke-width="0.6"/>
<rect x="528" y="40" width="26" height="26" fill="#b30000" stroke="#ddd" stroke-width="0.6"/>
<rect x="554" y="40" width="26" height="26" fill="#f3f3f3" stroke="#ddd" stroke-width="0.6"/>
<rect x="580" y="40" width="26" height="26" fill="#b30000" stroke="#ddd" stroke-width="0.6"/>
<rect x="606" y="40" width="26" height="26" fill="#f3f3f3" stroke="#ddd" stroke-width="0.6"/>
<rect x="632" y="40" width="26" height="26" fill="#b30000" stroke="#ddd" stroke-width="0.6"/>
<rect x="658" y="40" width="26" height="26" fill="#f3f3f3" stroke="#ddd" stroke-width="0.6"/>
<rect x="476" y="66" width="26" height="26" fill="#f3f3f3" stroke="#ddd" stroke-width="0.6"/>
<rect x="502" y="66" width="26" height="26" fill="#b30000" stroke="#ddd" stroke-width="0.6"/>
<rect x="528" y="66" width="26" height="26" fill="#f3f3f3" stroke="#ddd" stroke-width="0.6"/>
<rect x="554" y="66" width="26" height="26" fill="#b30000" stroke="#ddd" stroke-width="0.6"/>
<rect x="580" y="66" width="26" height="26" fill="#f3f3f3" stroke="#ddd" stroke-width="0.6"/>
<rect x="606" y="66" width="26" height="26" fill="#b30000" stroke="#ddd" stroke-width="0.6"/>
<rect x="632" y="66" width="26" height="26" fill="#f3f3f3" stroke="#ddd" stroke-width="0.6"/>
<rect x="658" y="66" width="26" height="26" fill="#f3f3f3" stroke="#ddd" stroke-width="0.6"/>
<rect x="476" y="92" width="26" height="26" fill="#f3f3f3" stroke="#ddd" stroke-width="0.6"/>
<rect x="502" y="92" width="26" height="26" fill="#f3f3f3" stroke="#ddd" stroke-width="0.6"/>
<rect x="528" y="92" width="26" height="26" fill="#b30000" stroke="#ddd" stroke-width="0.6"/>
<rect x="554" y="92" width="26" height="26" fill="#f3f3f3" stroke="#ddd" stroke-width="0.6"/>
<rect x="580" y="92" width="26" height="26" fill="#b30000" stroke="#ddd" stroke-width="0.6"/>
<rect x="606" y="92" width="26" height="26" fill="#f3f3f3" stroke="#ddd" stroke-width="0.6"/>
<rect x="632" y="92" width="26" height="26" fill="#f3f3f3" stroke="#ddd" stroke-width="0.6"/>
<rect x="658" y="92" width="26" height="26" fill="#f3f3f3" stroke="#ddd" stroke-width="0.6"/>
<rect x="476" y="118" width="26" height="26" fill="#f3f3f3" stroke="#ddd" stroke-width="0.6"/>
<rect x="502" y="118" width="26" height="26" fill="#f3f3f3" stroke="#ddd" stroke-width="0.6"/>
<rect x="528" y="118" width="26" height="26" fill="#f3f3f3" stroke="#ddd" stroke-width="0.6"/>
<rect x="554" y="118" width="26" height="26" fill="#b30000" stroke="#ddd" stroke-width="0.6"/>
<rect x="580" y="118" width="26" height="26" fill="#f3f3f3" stroke="#ddd" stroke-width="0.6"/>
<rect x="606" y="118" width="26" height="26" fill="#f3f3f3" stroke="#ddd" stroke-width="0.6"/>
<rect x="632" y="118" width="26" height="26" fill="#f3f3f3" stroke="#ddd" stroke-width="0.6"/>
<rect x="658" y="118" width="26" height="26" fill="#f3f3f3" stroke="#ddd" stroke-width="0.6"/>
<rect x="476" y="144" width="26" height="26" fill="#f3f3f3" stroke="#ddd" stroke-width="0.6"/>
<rect x="502" y="144" width="26" height="26" fill="#f3f3f3" stroke="#ddd" stroke-width="0.6"/>
<rect x="528" y="144" width="26" height="26" fill="#f3f3f3" stroke="#ddd" stroke-width="0.6"/>
<rect x="554" y="144" width="26" height="26" fill="#b30000" stroke="#ddd" stroke-width="0.6"/>
<rect x="580" y="144" width="26" height="26" fill="#f3f3f3" stroke="#ddd" stroke-width="0.6"/>
<rect x="606" y="144" width="26" height="26" fill="#b30000" stroke="#ddd" stroke-width="0.6"/>
<rect x="632" y="144" width="26" height="26" fill="#f3f3f3" stroke="#ddd" stroke-width="0.6"/>
<rect x="658" y="144" width="26" height="26" fill="#f3f3f3" stroke="#ddd" stroke-width="0.6"/>
<rect x="476" y="170" width="26" height="26" fill="#f3f3f3" stroke="#ddd" stroke-width="0.6"/>
<rect x="502" y="170" width="26" height="26" fill="#f3f3f3" stroke="#ddd" stroke-width="0.6"/>
<rect x="528" y="170" width="26" height="26" fill="#f3f3f3" stroke="#ddd" stroke-width="0.6"/>
<rect x="554" y="170" width="26" height="26" fill="#b30000" stroke="#ddd" stroke-width="0.6"/>
<rect x="580" y="170" width="26" height="26" fill="#b30000" stroke="#ddd" stroke-width="0.6"/>
<rect x="606" y="170" width="26" height="26" fill="#f3f3f3" stroke="#ddd" stroke-width="0.6"/>
<rect x="632" y="170" width="26" height="26" fill="#f3f3f3" stroke="#ddd" stroke-width="0.6"/>
<rect x="658" y="170" width="26" height="26" fill="#f3f3f3" stroke="#ddd" stroke-width="0.6"/>
<rect x="476" y="196" width="26" height="26" fill="#f3f3f3" stroke="#ddd" stroke-width="0.6"/>
<rect x="502" y="196" width="26" height="26" fill="#f3f3f3" stroke="#ddd" stroke-width="0.6"/>
<rect x="528" y="196" width="26" height="26" fill="#f3f3f3" stroke="#ddd" stroke-width="0.6"/>
<rect x="554" y="196" width="26" height="26" fill="#f3f3f3" stroke="#ddd" stroke-width="0.6"/>
<rect x="580" y="196" width="26" height="26" fill="#f3f3f3" stroke="#ddd" stroke-width="0.6"/>
<rect x="606" y="196" width="26" height="26" fill="#f3f3f3" stroke="#ddd" stroke-width="0.6"/>
<rect x="632" y="196" width="26" height="26" fill="#f3f3f3" stroke="#ddd" stroke-width="0.6"/>
<rect x="658" y="196" width="26" height="26" fill="#f3f3f3" stroke="#ddd" stroke-width="0.6"/>
<rect x="476" y="222" width="26" height="26" fill="#f3f3f3" stroke="#ddd" stroke-width="0.6"/>
<rect x="502" y="222" width="26" height="26" fill="#f3f3f3" stroke="#ddd" stroke-width="0.6"/>
<rect x="528" y="222" width="26" height="26" fill="#f3f3f3" stroke="#ddd" stroke-width="0.6"/>
<rect x="554" y="222" width="26" height="26" fill="#f3f3f3" stroke="#ddd" stroke-width="0.6"/>
<rect x="580" y="222" width="26" height="26" fill="#f3f3f3" stroke="#ddd" stroke-width="0.6"/>
<rect x="606" y="222" width="26" height="26" fill="#f3f3f3" stroke="#ddd" stroke-width="0.6"/>
<rect x="632" y="222" width="26" height="26" fill="#f3f3f3" stroke="#ddd" stroke-width="0.6"/>
<rect x="658" y="222" width="26" height="26" fill="#f3f3f3" stroke="#ddd" stroke-width="0.6"/>
<text x="580.0" y="270" text-anchor="middle" font-size="15" font-weight="bold">Wilde Hilde</text>
<text x="580.0" y="290" text-anchor="middle" font-size="14" fill="#b30000">71.4%</text>
<text x="812.0" y="26" text-anchor="middle" font-size="16" font-weight="bold">#4</text>
<rect x="708" y="40" width="26" height="26" fill="#f3f3f3" stroke="#ddd" stroke-width="0.6"/>
<rect x="734" y="40" width="26" height="26" fill="#f3f3f3" stroke="#ddd" stroke-width="0.6"/>
<rect x="760" y="40" width="26" height="26" fill="#f3f3f3" stroke="#ddd" stroke-width="0.6"/>
<rect x="786" y="40" width="26" height="26" fill="#f3f3f3" stroke="#ddd" stroke-width="0.6"/>
<rect x="812" y="40" width="26" height="26" fill="#f3f3f3" stroke="#ddd" stroke-width="0.6"/>
<rect x="838" y="40" width="26" height="26" fill="#f3f3f3" stroke="#ddd" stroke-width="0.6"/>
<rect x="864" y="40" width="26" height="26" fill="#f3f3f3" stroke="#ddd" stroke-width="0.6"/>
<rect x="890" y="40" width="26" height="26" fill="#f3f3f3" stroke="#ddd" stroke-width="0.6"/>
<rect x="708" y="66" width="26" height="26" fill="#f3f3f3" stroke="#ddd" stroke-width="0.6"/>
<rect x="734" y="66" width="26" height="26" fill="#f3f3f3" stroke="#ddd" stroke-width="0.6"/>
<rect x="760" y="66" width="26" height="26" fill="#f3f3f3" stroke="#ddd" stroke-width="0.6"/>
<rect x="786" y="66" width="26" height="26" fill="#f3f3f3" stroke="#ddd" stroke-width="0.6"/>
<rect x="812" y="66" width="26" height="26" fill="#f3f3f3" stroke="#ddd" stroke-width="0.6"/>
<rect x="838" y="66" width="26" height="26" fill="#b30000" stroke="#ddd" stroke-width="0.6"/>
<rect x="864" y="66" width="26" height="26" fill="#b30000" stroke="#ddd" stroke-width="0.6"/>
<rect x="890" y="66" width="26" height="26" fill="#f3f3f3" stroke="#ddd" stroke-width="0.6"/>
<rect x="708" y="92" width="26" height="26" fill="#f3f3f3" stroke="#ddd" stroke-width="0.6"/>
<rect x="734" y="92" width="26" height="26" fill="#f3f3f3" stroke="#ddd" stroke-width="0.6"/>
<rect x="760" y="92" width="26" height="26" fill="#f3f3f3" stroke="#ddd" stroke-width="0.6"/>
<rect x="786" y="92" width="26" height="26" fill="#f3f3f3" stroke="#ddd" stroke-width="0.6"/>
<rect x="812" y="92" width="26" height="26" fill="#f3f3f3" stroke="#ddd" stroke-width="0.6"/>
<rect x="838" y="92" width="26" height="26" fill="#b30000" stroke="#ddd" stroke-width="0.6"/>
<rect x="864" y="92" width="26" height="26" fill="#b30000" stroke="#ddd" stroke-width="0.6"/>
<rect x="890" y="92" width="26" height="26" fill="#f3f3f3" stroke="#ddd" stroke-width="0.6"/>
<rect x="708" y="118" width="26" height="26" fill="#f3f3f3" stroke="#ddd" stroke-width="0.6"/>
<rect x="734" y="118" width="26" height="26" fill="#f3f3f3" stroke="#ddd" stroke-width="0.6"/>
<rect x="760" y="118" width="26" height="26" fill="#f3f3f3" stroke="#ddd" stroke-width="0.6"/>
<rect x="786" y="118" width="26" height="26" fill="#f3f3f3" stroke="#ddd" stroke-width="0.6"/>
<rect x="812" y="118" width="26" height="26" fill="#f3f3f3" stroke="#ddd" stroke-width="0.6"/>
<rect x="838" y="118" width="26" height="26" fill="#f3f3f3" stroke="#ddd" stroke-width="0.6"/>
<rect x="864" y="118" width="26" height="26" fill="#b30000" stroke="#ddd" stroke-width="0.6"/>
<rect x="890" y="118" width="26" height="26" fill="#f3f3f3" stroke="#ddd" stroke-width="0.6"/>
<rect x="708" y="144" width="26" height="26" fill="#f3f3f3" stroke="#ddd" stroke-width="0.6"/>
<rect x="734" y="144" width="26" height="26" fill="#f3f3f3" stroke="#ddd" stroke-width="0.6"/>
<rect x="760" y="144" width="26" height="26" fill="#f3f3f3" stroke="#ddd" stroke-width="0.6"/>
<rect x="786" y="144" width="26" height="26" fill="#b30000" stroke="#ddd" stroke-width="0.6"/>
<rect x="812" y="144" width="26" height="26" fill="#f3f3f3" stroke="#ddd" stroke-width="0.6"/>
<rect x="838" y="144" width="26" height="26" fill="#f3f3f3" stroke="#ddd" stroke-width="0.6"/>
<rect x="864" y="144" width="26" height="26" fill="#f3f3f3" stroke="#ddd" stroke-width="0.6"/>
<rect x="890" y="144" width="26" height="26" fill="#b30000" stroke="#ddd" stroke-width="0.6"/>
<rect x="708" y="170" width="26" height="26" fill="#f3f3f3" stroke="#ddd" stroke-width="0.6"/>
<rect x="734" y="170" width="26" height="26" fill="#f3f3f3" stroke="#ddd" stroke-width="0.6"/>
<rect x="760" y="170" width="26" height="26" fill="#b30000" stroke="#ddd" stroke-width="0.6"/>
<rect x="786" y="170" width="26" height="26" fill="#b30000" stroke="#ddd" stroke-width="0.6"/>
<rect x="812" y="170" width="26" height="26" fill="#f3f3f3" stroke="#ddd" stroke-width="0.6"/>
<rect x="838" y="170" width="26" height="26" fill="#f3f3f3" stroke="#ddd" stroke-width="0.6"/>
<rect x="864" y="170" width="26" height="26" fill="#b30000" stroke="#ddd" stroke-width="0.6"/>
<rect x="890" y="170" width="26" height="26" fill="#f3f3f3" stroke="#ddd" stroke-width="0.6"/>
<rect x="708" y="196" width="26" height="26" fill="#f3f3f3" stroke="#ddd" stroke-width="0.6"/>
<rect x="734" y="196" width="26" height="26" fill="#b30000" stroke="#ddd" stroke-width="0.6"/>
<rect x="760" y="196" width="26" height="26" fill="#b30000" stroke="#ddd" stroke-width="0.6"/>
<rect x="786" y="196" width="26" height="26" fill="#b30000" stroke="#ddd" stroke-width="0.6"/>
<rect x="812" y="196" width="26" height="26" fill="#f3f3f3" stroke="#ddd" stroke-width="0.6"/>
<rect x="838" y="196" width="26" height="26" fill="#b30000" stroke="#ddd" stroke-width="0.6"/>
<rect x="864" y="196" width="26" height="26" fill="#f3f3f3" stroke="#ddd" stroke-width="0.6"/>
<rect x="890" y="196" width="26" height="26" fill="#b30000" stroke="#ddd" stroke-width="0.6"/>
<rect x="708" y="222" width="26" height="26" fill="#b30000" stroke="#ddd" stroke-width="0.6"/>
<rect x="734" y="222" width="26" height="26" fill="#f3f3f3" stroke="#ddd" stroke-width="0.6"/>
<rect x="760" y="222" width="26" height="26" fill="#f3f3f3" stroke="#ddd" stroke-width="0.6"/>
<rect x="786" y="222" width="26" height="26" fill="#f3f3f3" stroke="#ddd" stroke-width="0.6"/>
<rect x="812" y="222" width="26" height="26" fill="#b30000" stroke="#ddd" stroke-width="0.6"/>
<rect x="838" y="222" width="26" height="26" fill="#f3f3f3" stroke="#ddd" stroke-width="0.6"/>
<rect x="864" y="222" width="26" height="26" fill="#b30000" stroke="#ddd" stroke-width="0.6"/>
<rect x="890" y="222" width="26" height="26" fill="#f3f3f3" stroke="#ddd" stroke-width="0.6"/>
<text x="812.0" y="270" text-anchor="middle" font-size="15" font-weight="bold">Brummender Brauner</text>
<text x="812.0" y="290" text-anchor="middle" font-size="14" fill="#b30000">71.4%</text>
<text x="1044.0" y="26" text-anchor="middle" font-size="16" font-weight="bold">#5</text>
<rect x="940" y="40" width="26" height="26" fill="#f3f3f3" stroke="#ddd" stroke-width="0.6"/>
<rect x="966" y="40" width="26" height="26" fill="#f3f3f3" stroke="#ddd" stroke-width="0.6"/>
<rect x="992" y="40" width="26" height="26" fill="#f3f3f3" stroke="#ddd" stroke-width="0.6"/>
<rect x="1018" y="40" width="26" height="26" fill="#f3f3f3" stroke="#ddd" stroke-width="0.6"/>
<rect x="1044" y="40" width="26" height="26" fill="#f3f3f3" stroke="#ddd" stroke-width="0.6"/>
<rect x="1070" y="40" width="26" height="26" fill="#f3f3f3" stroke="#ddd" stroke-width="0.6"/>
<rect x="1096" y="40" width="26" height="26" fill="#f3f3f3" stroke="#ddd" stroke-width="0.6"/>
<rect x="1122" y="40" width="26" height="26" fill="#f3f3f3" stroke="#ddd" stroke-width="0.6"/>
<rect x="940" y="66" width="26" height="26" fill="#f3f3f3" stroke="#ddd" stroke-width="0.6"/>
<rect x="966" y="66" width="26" height="26" fill="#f3f3f3" stroke="#ddd" stroke-width="0.6"/>
<rect x="992" y="66" width="26" height="26" fill="#f3f3f3" stroke="#ddd" stroke-width="0.6"/>
<rect x="1018" y="66" width="26" height="26" fill="#f3f3f3" stroke="#ddd" stroke-width="0.6"/>
<rect x="1044" y="66" width="26" height="26" fill="#f3f3f3" stroke="#ddd" stroke-width="0.6"/>
<rect x="1070" y="66" width="26" height="26" fill="#f3f3f3" stroke="#ddd" stroke-width="0.6"/>
<rect x="1096" y="66" width="26" height="26" fill="#f3f3f3" stroke="#ddd" stroke-width="0.6"/>
<rect x="1122" y="66" width="26" height="26" fill="#f3f3f3" stroke="#ddd" stroke-width="0.6"/>
<rect x="940" y="92" width="26" height="26" fill="#f3f3f3" stroke="#ddd" stroke-width="0.6"/>
<rect x="966" y="92" width="26" height="26" fill="#f3f3f3" stroke="#ddd" stroke-width="0.6"/>
<rect x="992" y="92" width="26" height="26" fill="#f3f3f3" stroke="#ddd" stroke-width="0.6"/>
<rect x="1018" y="92" width="26" height="26" fill="#b30000" stroke="#ddd" stroke-width="0.6"/>
<rect x="1044" y="92" width="26" height="26" fill="#b30000" stroke="#ddd" stroke-width="0.6"/>
<rect x="1070" y="92" width="26" height="26" fill="#b30000" stroke="#ddd" stroke-width="0.6"/>
<rect x="1096" y="92" width="26" height="26" fill="#f3f3f3" stroke="#ddd" stroke-width="0.6"/>
<rect x="1122" y="92" width="26" height="26" fill="#f3f3f3" stroke="#ddd" stroke-width="0.6"/>
<rect x="940" y="118" width="26" height="26" fill="#f3f3f3" stroke="#ddd" stroke-width="0.6"/>
<rect x="966" y="118" width="26" height="26" fill="#f3f3f3" stroke="#ddd" stroke-width="0.6"/>
<rect x="992" y="118" width="26" height="26" fill="#b30000" stroke="#ddd" stroke-width="0.6"/>
<rect x="1018" y="118" width="26" height="26" fill="#f3f3f3" stroke="#ddd" stroke-width="0.6"/>
<rect x="1044" y="118" width="26" height="26" fill="#f3f3f3" stroke="#ddd" stroke-width="0.6"/>
<rect x="1070" y="118" width="26" height="26" fill="#f3f3f3" stroke="#ddd" stroke-width="0.6"/>
<rect x="1096" y="118" width="26" height="26" fill="#b30000" stroke="#ddd" stroke-width="0.6"/>
<rect x="1122" y="118" width="26" height="26" fill="#f3f3f3" stroke="#ddd" stroke-width="0.6"/>
<rect x="940" y="144" width="26" height="26" fill="#f3f3f3" stroke="#ddd" stroke-width="0.6"/>
<rect x="966" y="144" width="26" height="26" fill="#f3f3f3" stroke="#ddd" stroke-width="0.6"/>
<rect x="992" y="144" width="26" height="26" fill="#f3f3f3" stroke="#ddd" stroke-width="0.6"/>
<rect x="1018" y="144" width="26" height="26" fill="#b30000" stroke="#ddd" stroke-width="0.6"/>
<rect x="1044" y="144" width="26" height="26" fill="#b30000" stroke="#ddd" stroke-width="0.6"/>
<rect x="1070" y="144" width="26" height="26" fill="#b30000" stroke="#ddd" stroke-width="0.6"/>
<rect x="1096" y="144" width="26" height="26" fill="#f3f3f3" stroke="#ddd" stroke-width="0.6"/>
<rect x="1122" y="144" width="26" height="26" fill="#f3f3f3" stroke="#ddd" stroke-width="0.6"/>
<rect x="940" y="170" width="26" height="26" fill="#f3f3f3" stroke="#ddd" stroke-width="0.6"/>
<rect x="966" y="170" width="26" height="26" fill="#f3f3f3" stroke="#ddd" stroke-width="0.6"/>
<rect x="992" y="170" width="26" height="26" fill="#f3f3f3" stroke="#ddd" stroke-width="0.6"/>
<rect x="1018" y="170" width="26" height="26" fill="#f3f3f3" stroke="#ddd" stroke-width="0.6"/>
<rect x="1044" y="170" width="26" height="26" fill="#f3f3f3" stroke="#ddd" stroke-width="0.6"/>
<rect x="1070" y="170" width="26" height="26" fill="#f3f3f3" stroke="#ddd" stroke-width="0.6"/>
<rect x="1096" y="170" width="26" height="26" fill="#f3f3f3" stroke="#ddd" stroke-width="0.6"/>
<rect x="1122" y="170" width="26" height="26" fill="#f3f3f3" stroke="#ddd" stroke-width="0.6"/>
<rect x="940" y="196" width="26" height="26" fill="#f3f3f3" stroke="#ddd" stroke-width="0.6"/>
<rect x="966" y="196" width="26" height="26" fill="#f3f3f3" stroke="#ddd" stroke-width="0.6"/>
<rect x="992" y="196" width="26" height="26" fill="#f3f3f3" stroke="#ddd" stroke-width="0.6"/>
<rect x="1018" y="196" width="26" height="26" fill="#f3f3f3" stroke="#ddd" stroke-width="0.6"/>
<rect x="1044" y="196" width="26" height="26" fill="#f3f3f3" stroke="#ddd" stroke-width="0.6"/>
<rect x="1070" y="196" width="26" height="26" fill="#f3f3f3" stroke="#ddd" stroke-width="0.6"/>
<rect x="1096" y="196" width="26" height="26" fill="#f3f3f3" stroke="#ddd" stroke-width="0.6"/>
<rect x="1122" y="196" width="26" height="26" fill="#f3f3f3" stroke="#ddd" stroke-width="0.6"/>
<rect x="940" y="222" width="26" height="26" fill="#f3f3f3" stroke="#ddd" stroke-width="0.6"/>
<rect x="966" y="222" width="26" height="26" fill="#f3f3f3" stroke="#ddd" stroke-width="0.6"/>
<rect x="992" y="222" width="26" height="26" fill="#f3f3f3" stroke="#ddd" stroke-width="0.6"/>
<rect x="1018" y="222" width="26" height="26" fill="#f3f3f3" stroke="#ddd" stroke-width="0.6"/>
<rect x="1044" y="222" width="26" height="26" fill="#f3f3f3" stroke="#ddd" stroke-width="0.6"/>
<rect x="1070" y="222" width="26" height="26" fill="#f3f3f3" stroke="#ddd" stroke-width="0.6"/>
<rect x="1096" y="222" width="26" height="26" fill="#f3f3f3" stroke="#ddd" stroke-width="0.6"/>
<rect x="1122" y="222" width="26" height="26" fill="#f3f3f3" stroke="#ddd" stroke-width="0.6"/>
<text x="1044.0" y="270" text-anchor="middle" font-size="15" font-weight="bold">Mose</text>
<text x="1044.0" y="290" text-anchor="middle" font-size="14" fill="#b30000">69.6%</text>
</svg>